HIERARCHY
ROOT Root
{
  OFFSET 0.0 0.0 0.0
  CHANNELS 6 Xposition Yposition Zposition Zrotation Yrotation Xrotation
  JOINT Hips
  {
    OFFSET 0.0 100.0 0.0
    CHANNELS 6 Xposition Yposition Zposition Zrotation Yrotation Xrotation
    JOINT Spine1
    {
      OFFSET 5.003913 -0.037094 -0.013727
      CHANNELS 3 Zrotation Yrotation Xrotation
      JOINT Spine2
      {
        OFFSET 7.125363 -1e-06 0.0
        CHANNELS 3 Zrotation Yrotation Xrotation
        JOINT Chest
        {
          OFFSET 7.594027 1e-06 0.0
          CHANNELS 3 Zrotation Yrotation Xrotation
          JOINT Neck1
          {
            OFFSET 26.313086 -0.460272 -0.181672
            CHANNELS 3 Zrotation Yrotation Xrotation
            JOINT Neck2
            {
              OFFSET 8.045911 0.0 0.0
              CHANNELS 3 Zrotation Yrotation Xrotation
              JOINT Head
              {
                OFFSET 6.432774 0.0 0.0
                CHANNELS 3 Zrotation Yrotation Xrotation
                JOINT HeadEnd
                {
                  OFFSET 16.169773 0.06451 0.00362
                  CHANNELS 3 Zrotation Yrotation Xrotation
                }
                JOINT Jaw
                {
                  OFFSET 0.108741 3.12938 0.002639
                  CHANNELS 3 Zrotation Yrotation Xrotation
                }
                JOINT LeftEye
                {
                  OFFSET 4.45173 8.166359 3.206392
                  CHANNELS 3 Zrotation Yrotation Xrotation
                }
                JOINT RightEye
                {
                  OFFSET 4.436895 8.135758 -3.222429
                  CHANNELS 3 Zrotation Yrotation Xrotation
                }
              }
            }
          }
          JOINT LeftShoulder
          {
            OFFSET 23.218927 5.195579 1.621656
            CHANNELS 3 Zrotation Yrotation Xrotation
            JOINT LeftArm
            {
              OFFSET 15.902118 2e-06 -2e-06
              CHANNELS 3 Zrotation Yrotation Xrotation
              JOINT LeftForeArm
              {
                OFFSET 28.739307 0.0 -1e-06
                CHANNELS 3 Zrotation Yrotation Xrotation
                JOINT LeftHand
                {
                  OFFSET 27.093981 -4e-06 0.0
                  CHANNELS 3 Zrotation Yrotation Xrotation
                  JOINT LeftHandThumb1
                  {
                    OFFSET 2.276781 3.380274 0.83384
                    CHANNELS 3 Zrotation Yrotation Xrotation
                    JOINT LeftHandThumb2
                    {
                      OFFSET 4.705309 -1e-06 -1e-06
                      CHANNELS 3 Zrotation Yrotation Xrotation
                      JOINT LeftHandThumb3
                      {
                        OFFSET 2.798515 0.0 3e-06
                        CHANNELS 3 Zrotation Yrotation Xrotation
                        JOINT LeftHandThumbEnd
                        {
                          OFFSET 3.180793 4e-06 -4e-06
                          CHANNELS 3 Zrotation Yrotation Xrotation
                        }
                      }
                    }
                  }
                  JOINT LeftHandIndex1
                  {
                    OFFSET 3.247786 2.352677 0.137192
                    CHANNELS 3 Zrotation Yrotation Xrotation
                    JOINT LeftHandIndex2
                    {
                      OFFSET 6.367095 1e-06 0.0
                      CHANNELS 3 Zrotation Yrotation Xrotation
                      JOINT LeftHandIndex3
                      {
                        OFFSET 3.662364 0.0 0.0
                        CHANNELS 3 Zrotation Yrotation Xrotation
                        JOINT LeftHandIndex4
                        {
                          OFFSET 2.329242 4e-06 -4e-06
                          CHANNELS 3 Zrotation Yrotation Xrotation
                          JOINT LeftHandIndexEnd
                          {
                            OFFSET 2.767823 1e-06 0.0
                            CHANNELS 3 Zrotation Yrotation Xrotation
                          }
                        }
                      }
                    }
                  }
                  JOINT LeftHandMiddle1
                  {
                    OFFSET 3.163612 0.945023 -0.406112
                    CHANNELS 3 Zrotation Yrotation Xrotation
                    JOINT LeftHandMiddle2
                    {
                      OFFSET 6.276789 3e-06 0.0
                      CHANNELS 3 Zrotation Yrotation Xrotation
                      JOINT LeftHandMiddle3
                      {
                        OFFSET 4.35652 -1e-06 4e-06
                        CHANNELS 3 Zrotation Yrotation Xrotation
                        JOINT LeftHandMiddle4
                        {
                          OFFSET 2.996877 0.0 8e-06
                          CHANNELS 3 Zrotation Yrotation Xrotation
                          JOINT LeftHandMiddleEnd
                          {
                            OFFSET 2.323256 3e-06 -4e-06
                            CHANNELS 3 Zrotation Yrotation Xrotation
                          }
                        }
                      }
                    }
                  }
                  JOINT LeftHandRing1
                  {
                    OFFSET 2.882606 -0.309162 0.107445
                    CHANNELS 3 Zrotation Yrotation Xrotation
                    JOINT LeftHandRing2
                    {
                      OFFSET 6.033198 0.0 4e-06
                      CHANNELS 3 Zrotation Yrotation Xrotation
                      JOINT LeftHandRing3
                      {
                        OFFSET 4.350578 3e-06 0.0
                        CHANNELS 3 Zrotation Yrotation Xrotation
                        JOINT LeftHandRing4
                        {
                          OFFSET 2.651321 2e-06 -7e-06
                          CHANNELS 3 Zrotation Yrotation Xrotation
                          JOINT LeftHandRingEnd
                          {
                            OFFSET 1.937663 1e-06 -4e-06
                            CHANNELS 3 Zrotation Yrotation Xrotation
                          }
                        }
                      }
                    }
                  }
                  JOINT LeftHandPinky1
                  {
                    OFFSET 2.865315 -1.525436 0.575687
                    CHANNELS 3 Zrotation Yrotation Xrotation
                    JOINT LeftHandPinky2
                    {
                      OFFSET 5.54936 1e-06 -8e-06
                      CHANNELS 3 Zrotation Yrotation Xrotation
                      JOINT LeftHandPinky3
                      {
                        OFFSET 3.070974 0.0 -4e-06
                        CHANNELS 3 Zrotation Yrotation Xrotation
                        JOINT LeftHandPinky4
                        {
                          OFFSET 1.549672 1e-06 0.0
                          CHANNELS 3 Zrotation Yrotation Xrotation
                          JOINT LeftHandPinkyEnd
                          {
                            OFFSET 1.952123 0.0 0.0
                            CHANNELS 3 Zrotation Yrotation Xrotation
                          }
                        }
                      }
                    }
                  }
                }
              }
            }
          }
          JOINT RightShoulder
          {
            OFFSET 23.161716 5.296122 -1.380114
            CHANNELS 3 Zrotation Yrotation Xrotation
            JOINT RightArm
            {
              OFFSET -16.027195 -2e-06 1.1e-05
              CHANNELS 3 Zrotation Yrotation Xrotation
              JOINT RightForeArm
              {
                OFFSET -28.736639 4e-06 2e-06
                CHANNELS 3 Zrotation Yrotation Xrotation
                JOINT RightHand
                {
                  OFFSET -27.133619 6e-06 0.0
                  CHANNELS 3 Zrotation Yrotation Xrotation
                  JOINT RightHandThumb1
                  {
                    OFFSET -2.274328 -3.351035 -0.83067
                    CHANNELS 3 Zrotation Yrotation Xrotation
                    JOINT RightHandThumb2
                    {
                      OFFSET -4.703594 -3e-06 2e-06
                      CHANNELS 3 Zrotation Yrotation Xrotation
                      JOINT RightHandThumb3
                      {
                        OFFSET -2.794935 -4e-06 -3e-06
                        CHANNELS 3 Zrotation Yrotation Xrotation
                        JOINT RightHandThumbEnd
                        {
                          OFFSET -3.183852 4e-06 1e-06
                          CHANNELS 3 Zrotation Yrotation Xrotation
                        }
                      }
                    }
                  }
                  JOINT RightHandIndex1
                  {
                    OFFSET -3.253496 -2.33755 -0.127667
                    CHANNELS 3 Zrotation Yrotation Xrotation
                    JOINT RightHandIndex2
                    {
                      OFFSET -6.344434 0.0 0.0
                      CHANNELS 3 Zrotation Yrotation Xrotation
                      JOINT RightHandIndex3
                      {
                        OFFSET -3.654871 0.0 -8e-06
                        CHANNELS 3 Zrotation Yrotation Xrotation
                        JOINT RightHandIndex4
                        {
                          OFFSET -2.327586 -1e-06 0.0
                          CHANNELS 3 Zrotation Yrotation Xrotation
                          JOINT RightHandIndexEnd
                          {
                            OFFSET -2.770001 3e-06 8e-06
                            CHANNELS 3 Zrotation Yrotation Xrotation
                          }
                        }
                      }
                    }
                  }
                  JOINT RightHandMiddle1
                  {
                    OFFSET -3.168223 -0.944764 0.411762
                    CHANNELS 3 Zrotation Yrotation Xrotation
                    JOINT RightHandMiddle2
                    {
                      OFFSET -6.266691 -1e-06 -4e-06
                      CHANNELS 3 Zrotation Yrotation Xrotation
                      JOINT RightHandMiddle3
                      {
                        OFFSET -4.348901 0.0 0.0
                        CHANNELS 3 Zrotation Yrotation Xrotation
                        JOINT RightHandMiddle4
                        {
                          OFFSET -3.00024 2e-06 -4e-06
                          CHANNELS 3 Zrotation Yrotation Xrotation
                          JOINT RightHandMiddleEnd
                          {
                            OFFSET -2.321477 -4e-06 -4e-06
                            CHANNELS 3 Zrotation Yrotation Xrotation
                          }
                        }
                      }
                    }
                  }
                  JOINT RightHandRing1
                  {
                    OFFSET -2.885654 0.293261 -0.119232
                    CHANNELS 3 Zrotation Yrotation Xrotation
                    JOINT RightHandRing2
                    {
                      OFFSET -6.032835 -1e-06 -4e-06
                      CHANNELS 3 Zrotation Yrotation Xrotation
                      JOINT RightHandRing3
                      {
                        OFFSET -4.33881 0.0 -4e-06
                        CHANNELS 3 Zrotation Yrotation Xrotation
                        JOINT RightHandRing4
                        {
                          OFFSET -2.654903 -4e-06 -4e-06
                          CHANNELS 3 Zrotation Yrotation Xrotation
                          JOINT RightHandRingEnd
                          {
                            OFFSET -1.935122 0.0 4e-06
                            CHANNELS 3 Zrotation Yrotation Xrotation
                          }
                        }
                      }
                    }
                  }
                  JOINT RightHandPinky1
                  {
                    OFFSET -2.866241 1.503904 -0.60527
                    CHANNELS 3 Zrotation Yrotation Xrotation
                    JOINT RightHandPinky2
                    {
                      OFFSET -5.553177 -2e-06 0.0
                      CHANNELS 3 Zrotation Yrotation Xrotation
                      JOINT RightHandPinky3
                      {
                        OFFSET -3.062664 -1e-06 -4e-06
                        CHANNELS 3 Zrotation Yrotation Xrotation
                        JOINT RightHandPinky4
                        {
                          OFFSET -1.546529 2e-06 4e-06
                          CHANNELS 3 Zrotation Yrotation Xrotation
                          JOINT RightHandPinkyEnd
                          {
                            OFFSET -1.952341 0.0 -4e-06
                            CHANNELS 3 Zrotation Yrotation Xrotation
                          }
                        }
                      }
                    }
                  }
                }
              }
            }
          }
        }
      }
    }
    JOINT LeftLeg
    {
      OFFSET -8.443107 2.567604 10.043214
      CHANNELS 3 Zrotation Yrotation Xrotation
      JOINT LeftShin
      {
        OFFSET 43.229198 1e-06 -1e-06
        CHANNELS 3 Zrotation Yrotation Xrotation
        JOINT LeftFoot
        {
          OFFSET 42.298611 1e-06 1e-06
          CHANNELS 3 Zrotation Yrotation Xrotation
          JOINT LeftToeBase
          {
            OFFSET 14.165858 1e-06 0.0
            CHANNELS 3 Zrotation Yrotation Xrotation
            JOINT LeftToeEnd
            {
              OFFSET 6.7141 -0.234461 0.0
              CHANNELS 3 Zrotation Yrotation Xrotation
            }
          }
        }
      }
    }
    JOINT RightLeg
    {
      OFFSET -8.303923 2.592729 -10.047278
      CHANNELS 3 Zrotation Yrotation Xrotation
      JOINT RightShin
      {
        OFFSET -43.369682 0.0 1e-06
        CHANNELS 3 Zrotation Yrotation Xrotation
        JOINT RightFoot
        {
          OFFSET -42.260784 4e-06 2e-06
          CHANNELS 3 Zrotation Yrotation Xrotation
          JOINT RightToeBase
          {
            OFFSET -14.222245 -2e-06 -1e-06
            CHANNELS 3 Zrotation Yrotation Xrotation
            JOINT RightToeEnd
            {
              OFFSET -6.660062 0.232574 -2e-06
              CHANNELS 3 Zrotation Yrotation Xrotation
            }
          }
        }
      }
    }
  }
}
MOTION
Frames: 4
Frame Time: 0.03333333333333333
0.0 0.0 0.0 0.0 -0.0 0.0 -1.090427 100.242744 -1.243694 90.481628 0.982513 90.010742 -1.483756 -0.338608 -0.145562 -11.842393 -0.611095 -0.012752 18.224159 0.118842 -2.390603 18.950411 -4.74779 2.491278 -2.543734 -0.984208 -5.662171 -31.558603 -3.613445 -6.103891 7e-06 -0.0 -0.0 -0.021498 0.069657 0.034515 -0.044136 0.131148 0.021752 -0.055234 0.000723 0.050167 -121.272049 -72.382019 142.660019 36.705582 -50.925663 -0.53368 36.811016 0.776253 0.481967 -0.446497 7.413832 -20.302494 17.636633 -26.322723 52.411182 -19.466656 -14.395598 29.410381 1e-06 -8.774822 -1e-06 15.786627 -17.875341 6.390932 -0.609778 -1.795653 -3.889327 -4.80709 -11.046807 -2.937849 3e-06 -20.976011 -0.0 -5.019972 -25.033546 -4.031882 6e-06 0.0 0.0 -10.634533 -5.686967 -3.565585 10.573272 -17.922943 -3.113899 3e-06 -13.821201 1e-06 -0.50178 -31.181488 -4.027012 -11.243227 -59.717419 6.947693 -13.982717 -7.150197 -2.87504 13.77273 -8.401489 -3.218241 0.347732 -34.21154 0.771656 -0.963029 -17.733366 2.621021 -0.0 1e-06 -1e-06 -17.346416 -20.095209 -4.20178 21.757557 -1.638374 3.866428 2e-06 -6.33882 1e-06 -1.697591 -22.59174 -6.194003 -1e-06 -3e-06 -3e-06 49.849823 -80.013748 151.969666 45.743408 -62.909088 -31.387804 28.873474 0.113265 0.302694 -7.360772 17.242769 -15.892047 22.182121 -20.375898 49.933327 -16.701817 -16.74353 28.476532 -4e-06 -12.690601 -1e-06 15.915127 -18.584446 3.117973 -0.105919 -1.513857 -4.275881 -5.039042 -5.612868 -2.953556 5e-06 -11.020523 -1e-06 -6.111298 -15.89533 -3.840471 1e-06 -0.0 0.0 -10.283369 -5.680288 -4.341839 11.028296 -11.302406 -2.372632 -1.384266 -14.238578 -6.32012 -0.625435 -26.924185 -3.827602 -4.287206 -50.01704 -3.740456 -13.708525 -7.363473 -3.720939 18.141151 -14.052739 -3.242674 8e-06 -18.787266 -1e-06 -0.429713 -8.456043 2.555504 -0.0 0.0 0.0 -15.923536 -20.094481 -5.473586 30.419218 -7.190828 1.735926 1e-06 -8.162926 1e-06 -1.861902 -22.861467 -6.167942 -0.0 -3e-06 -2e-06 -175.000961 -2.862261 1.658628 5.675623 -0.019639 -0.12733 -78.015312 0.170222 -5.070457 -5.044735 1.560749 2.167093 -0.999998 -0.0 0.0 4.867976 -1.605706 -5.129286 6.323273 -0.014494 0.11138 -79.185081 -4.5877 -4.512128 -4.307047 0.637343 1.686608 -1.000003 0.0 -0.0 
0.0 0.0 0.0 0.0 -0.0 0.0 -1.078512 100.278709 -1.231267 90.483887 0.900989 89.909874 -1.454741 -0.326804 -0.180907 -11.828994 -0.584352 0.017376 18.131701 -0.006185 -2.401017 18.936726 -4.687766 2.507039 -2.516265 -0.9393 -5.711033 -31.607544 -3.679248 -6.127669 6e-06 0.0 -0.0 -0.021812 0.065529 0.052897 -0.035553 0.131191 0.044572 -0.04719 -0.007545 0.064299 -121.681938 -72.446129 143.069992 36.138504 -50.224339 -3.087754 37.323589 0.692177 0.335623 -0.504094 8.235707 -22.275269 17.636625 -26.32272 52.411182 -19.46666 -14.395597 29.410385 0.0 -8.774819 -2e-06 15.832157 -17.926493 6.375875 -0.609779 -1.795653 -3.889326 -4.807086 -11.046808 -2.93785 2e-06 -20.976015 -0.0 -5.019969 -25.033546 -4.03188 5e-06 -0.0 -0.0 -10.634533 -5.68697 -3.565587 10.573272 -17.922947 -3.113901 1e-06 -13.821206 0.0 -0.501778 -31.181498 -4.027017 -11.354321 -59.768288 7.023552 -13.982712 -7.150197 -2.875041 13.772727 -8.40149 -3.218241 0.347732 -34.211552 0.771654 -0.963028 -17.73337 2.621022 -0.0 -0.0 -1e-06 -17.346415 -20.095217 -4.201782 21.757555 -1.638374 3.866428 2e-06 -6.338821 1e-06 -1.697589 -22.591751 -6.194007 -2e-06 -3e-06 -2e-06 50.004971 -80.19294 151.81015 44.886921 -62.189644 -33.33794 30.165981 0.273742 0.286768 -7.483852 18.68507 -15.646628 22.182114 -20.375887 49.933308 -16.701811 -16.743528 28.476528 -3e-06 -12.6906 -1e-06 15.872837 -18.585924 3.198371 -0.105919 -1.513856 -4.275881 -5.03904 -5.61287 -2.953556 4e-06 -11.020526 -1e-06 -6.111297 -15.895332 -3.840472 -0.0 0.0 0.0 -10.283369 -5.680288 -4.341836 11.028294 -11.302404 -2.372633 -1.384267 -14.238579 -6.32012 -0.625437 -26.924187 -3.8276 -4.272958 -50.273575 -3.641928 -13.708521 -7.363476 -3.720939 18.141148 -14.052739 -3.242674 8e-06 -18.787268 -3e-06 -0.429711 -8.456043 2.555503 0.0 1e-06 0.0 -15.923536 -20.094482 -5.473583 30.41921 -7.190826 1.735925 2e-06 -8.162927 0.0 -1.861904 -22.861469 -6.167941 -1e-06 -2e-06 -1e-06 -175.077667 -2.850119 1.427711 5.697353 -0.008337 -0.08369 -77.888168 0.271129 -5.083871 -5.053833 1.601301 2.185038 -0.999999 -0.0 0.0 4.662794 -1.639586 -5.068448 6.505592 -0.019274 0.120532 -79.104332 -4.459999 -4.462755 -4.312614 0.621761 1.686603 -1.000001 -0.0 0.0 
0.0 0.0 0.0 0.0 -0.0 0.0 -1.065125 100.296425 -1.233275 90.498985 0.807801 89.825668 -1.453236 -0.31823 -0.194527 -11.82894 -0.571436 0.043788 18.089108 -0.112066 -2.414157 18.850489 -4.620884 2.517027 -2.522264 -0.901056 -5.76594 -31.432549 -3.738201 -6.235332 6e-06 0.0 -0.0 -0.023264 0.064331 0.055533 -0.043164 0.128856 0.051419 -0.051488 -0.007892 0.062174 -121.94976 -72.557716 143.328873 35.432156 -49.503605 -5.832438 38.111122 0.66073 0.239462 -0.837945 9.09872 -25.256926 17.636629 -26.322721 52.411182 -19.466661 -14.395596 29.410389 0.0 -8.774821 -2e-06 15.843291 -18.013575 6.424393 -0.609777 -1.795653 -3.889327 -4.807087 -11.046811 -2.937851 3e-06 -20.976015 -3e-06 -5.01997 -25.033558 -4.031884 7e-06 -0.0 -0.0 -10.634537 -5.686971 -3.565587 10.573277 -17.922951 -3.113903 2e-06 -13.821209 -1e-06 -0.50178 -31.181505 -4.027017 -11.481735 -59.923298 7.109931 -13.982712 -7.150198 -2.875042 13.772732 -8.401489 -3.218242 0.347732 -34.211544 0.771652 -0.963027 -17.73337 2.621018 -1e-06 0.0 -1e-06 -17.346418 -20.095219 -4.20178 21.757557 -1.638373 3.866428 4e-06 -6.338823 1e-06 -1.69759 -22.591747 -6.194007 -0.0 -4e-06 -3e-06 50.193516 -80.395119 151.515808 43.529953 -61.429371 -35.192169 31.737457 0.375666 0.287907 -7.586045 20.332113 -15.642016 22.182114 -20.375895 49.933308 -16.701811 -16.743528 28.476524 -3e-06 -12.6906 1e-06 15.718463 -18.469114 3.296639 -0.105919 -1.513855 -4.27588 -5.039041 -5.612872 -2.953554 3e-06 -11.020523 -2e-06 -6.111296 -15.89533 -3.840472 -1e-06 -1e-06 1e-06 -10.283368 -5.680287 -4.341838 11.028293 -11.302404 -2.372632 -1.384268 -14.238579 -6.32012 -0.625437 -26.924187 -3.827598 -4.233195 -50.331589 -3.582178 -13.70852 -7.363472 -3.720938 18.141146 -14.052739 -3.242672 6e-06 -18.787268 0.0 -0.429714 -8.456043 2.555502 2e-06 1e-06 1e-06 -15.923532 -20.094481 -5.473582 30.419207 -7.190824 1.735923 1e-06 -8.162925 0.0 -1.861902 -22.861465 -6.167938 -0.0 -4e-06 -1e-06 -175.197968 -2.816572 1.229043 5.758626 -0.00821 -0.058273 -77.843742 0.342323 -5.006989 -5.026776 1.611535 2.194895 -0.999999 -0.0 0.0 4.522828 -1.702132 -5.07408 6.580709 -0.012083 0.130468 -79.081184 -4.281699 -4.440979 -4.277118 0.620377 1.687219 -1.000001 0.0 -0.0 
0.0 0.0 0.0 0.0 -0.0 0.0 -1.05644 100.304794 -1.240418 90.500359 0.719661 89.730301 -1.432133 -0.315722 -0.199588 -11.837173 -0.555296 0.065916 18.041151 -0.186916 -2.418353 18.762411 -4.579193 2.516575 -2.53368 -0.88197 -5.776921 -31.23941 -3.765873 -6.383371 6e-06 1e-06 -0.0 -0.028215 0.062556 0.050644 -0.048199 0.123848 0.050683 -0.05454 -0.006648 0.052339 -121.948792 -72.72541 143.336929 34.647514 -48.856327 -8.752276 39.154922 0.656627 0.204309 -1.274063 10.052354 -29.09716 17.636623 -26.322718 52.411182 -19.466661 -14.395594 29.410389 0.0 -8.774818 -2e-06 15.854913 -18.081598 6.475087 -0.60978 -1.795654 -3.889327 -4.807087 -11.046811 -2.93785 3e-06 -20.976019 -2e-06 -5.019969 -25.033558 -4.031882 6e-06 -0.0 -1e-06 -10.634535 -5.68697 -3.565588 10.573272 -17.922947 -3.113901 2e-06 -13.821206 -1e-06 -0.501776 -31.181505 -4.02702 -11.60154 -60.142841 7.221505 -13.982714 -7.150199 -2.875042 13.772731 -8.401491 -3.218243 0.34773 -34.211552 0.771653 -0.963028 -17.73337 2.621018 -2e-06 3e-06 -2e-06 -17.346418 -20.095217 -4.201782 21.757555 -1.638373 3.866427 2e-06 -6.338823 0.0 -1.697588 -22.591742 -6.194007 -2e-06 -5e-06 -2e-06 50.562069 -80.632484 151.003662 41.883156 -60.624569 -36.9044 33.521923 0.452971 0.345862 -7.660437 21.736443 -15.660552 22.182116 -20.375889 49.933315 -16.701811 -16.743528 28.476528 -2e-06 -12.6906 -1e-06 15.532962 -18.287226 3.377466 -0.10592 -1.513856 -4.275882 -5.039041 -5.612871 -2.953554 2e-06 -11.020521 -3e-06 -6.111297 -15.895334 -3.840472 1e-06 -0.0 0.0 -10.283369 -5.680288 -4.34184 11.02829 -11.302405 -2.372633 -1.384271 -14.238581 -6.320122 -0.625439 -26.924187 -3.827604 -4.206547 -50.266022 -3.558032 -13.708525 -7.363477 -3.720941 18.141146 -14.052739 -3.242673 5e-06 -18.787268 0.0 -0.42971 -8.456043 2.555504 0.0 -0.0 1e-06 -15.923536 -20.094482 -5.473585 30.41921 -7.190824 1.735928 1e-06 -8.162927 0.0 -1.861902 -22.861469 -6.167944 -1e-06 -3e-06 -2e-06 -175.314743 -2.790293 1.014224 5.809216 -0.012323 -0.054932 -77.843544 0.400995 -4.907643 -4.991121 1.602312 2.196313 -0.999998 0.0 -0.0 4.414533 -1.752308 -5.085455 6.594918 -0.004168 0.126053 -79.068268 -4.042949 -4.402164 -4.271161 0.618733 1.685834 -1.000001 1e-06 0.0 
